{"glyphs":{":":{"x_min":0,"x_max":333,"ha":333,"o":"m 115 367 l 142 505 l 282 505 l 255 367 z m 43 0 l 70 137 l 211 137 l 184 0 z"},"$":{"x_min":0,"x_max":556,"ha":556,"o":"m 527 231 q 527 127 458 72 q 390 16 252 10 l 236 -74 l 181 -74 l 197 11 q 111 11 56 57 q 0 103 -5 179 l 123 199 q 129 113 217 113 l 253 302 q 165 324 118 371 q 70 417 70 482 q 70 542 101 587 q 131 631 192 656 q 252 681 328 681 l 340 742 l 394 740 l 380 677 q 459 677 509 638 q 559 600 565 532 l 438 504 q 431 542 411 561 q 391 581 362 581 l 329 409 q 431 384 479 341 q 527 298 527 231 z m 396 202 q 396 239 374 259 q 353 279 306 290 l 271 113 q 327 113 361 137 q 396 161 396 202 z m 201 491 q 201 467 217 451 q 233 436 276 421 l 309 583 q 261 583 231 557 q 201 531 201 491 z"},"?":{"x_min":0,"x_max":611,"ha":611,"o":"m 364 698 q 468 698 529 652 q 590 606 590 525 q 590 481 572 446 q 554 412 521 382 q 487 353 411 310 q 373 285 359 272 q 345 259 336 244 q 328 229 325 208 l 195 208 q 202 246 217 274 q 232 302 256 324 q 279 347 337 383 q 371 404 393 420 q 415 436 428 451 q 441 466 447 481 q 452 496 452 515 q 452 546 429 566 q 405 586 356 586 q 245 586 220 492 l 90 512 q 147 698 364 698 z m 151 0 l 176 132 l 317 132 l 292 0 z"},"<":{"x_min":0,"x_max":584,"ha":584,"o":"m 61 252 l 61 409 l 562 600 l 562 489 l 155 330 l 562 172 l 562 61 z"},"'":{"x_min":0,"x_max":238,"ha":238,"o":"m 204 438 l 97 438 l 132 688 l 265 688 z"},"=":{"x_min":0,"x_max":584,"ha":584,"o":"m 60 411 l 60 520 l 562 520 l 562 411 z m 60 142 l 60 250 l 562 250 l 562 142 z"},"a":{"x_min":0,"x_max":556,"ha":556,"o":"m 436 -5 q 387 -5 360 16 q 334 36 334 70 q 334 88 336 101 l 333 101 q 292 38 252 14 q 212 -10 155 -10 q 86 -10 46 31 q 5 72 5 136 q 5 226 67 272 q 129 318 269 321 l 362 322 q 373 369 373 386 q 373 449 311 449 q 265 449 242 431 q 220 413 211 379 l 83 395 q 100 465 158 501 q 216 538 313 538 q 414 538 461 502 q 508 467 508 394 q 508 376 497 317 l 462 145 q 458 123 458 110 q 458 98 463 92 q 468 85 474 83 q 480 80 487 79 q 493 78 497 78 q 511 78 527 82 l 520 6 q 500 -2 479 -3 q 458 -5 436 -5 z m 347 246 l 268 246 q 211 245 178 222 q 145 200 145 159 q 145 125 164 105 q 184 86 216 86 q 257 86 290 117 q 323 149 336 201 z"},"L":{"x_min":0,"x_max":611,"ha":611,"o":"m 18 0 l 151 688 l 295 688 l 183 111 l 552 111 l 530 0 z"},"3":{"x_min":0,"x_max":556,"ha":556,"o":"m 261 405 q 334 405 370 433 q 406 461 406 513 q 406 548 387 569 q 368 589 329 589 q 238 589 213 499 l 83 524 q 133 698 334 698 q 434 698 489 654 q 545 609 545 530 q 545 454 498 408 q 450 361 369 354 l 368 352 q 434 342 469 303 q 503 265 503 204 q 503 144 471 94 q 439 44 382 17 q 324 -10 250 -10 q 139 -10 77 36 q 16 81 8 167 l 146 186 q 151 142 176 121 q 202 101 256 101 q 307 101 335 128 q 364 155 364 203 q 364 294 256 294 l 204 294 l 226 405 z"},";":{"x_min":0,"x_max":333,"ha":333,"o":"m 115 367 l 142 505 l 282 505 l 255 367 z m 101 -155 l 11 -155 q 49 -117 74 -76 q 100 -36 106 0 l 43 0 l 70 137 l 211 137 l 190 32 q 179 -26 158 -71 q 138 -115 101 -155 z"},"J":{"x_min":0,"x_max":556,"ha":556,"o":"m 234 -10 q 142 -10 86 37 q 31 84 12 185 l 143 213 q 165 103 244 103 q 270 103 288 115 q 306 126 318 148 q 330 169 338 215 l 408 575 l 271 575 l 292 688 l 573 688 l 479 207 q 457 94 398 42 q 340 -10 234 -10 z"},"V":{"x_min":0,"x_max":667,"ha":667,"o":"m 360 0 l 194 0 l 83 688 l 232 688 l 288 246 q 296 174 299 116 q 322 168 336 198 q 350 228 586 688 l 737 688 z"},"\"":{"x_min":0,"x_max":474,"ha":474,"o":"m 422 438 l 315 438 l 350 688 l 484 688 z m 214 438 l 107 438 l 142 688 l 275 688 z"},"7":{"x_min":0,"x_max":556,"ha":556,"o":"m 92 688 l 595 688 l 574 579 l 495 484 q 368 335 312 229 q 256 123 230 0 l 85 0 q 102 89 135 164 q 169 239 215 307 q 260 375 317 441 q 373 506 436 575 l 70 575 z"},"S":{"x_min":0,"x_max":667,"ha":667,"o":"m 293 -10 q 163 -10 94 36 q 26 83 12 178 l 153 202 q 164 148 199 123 q 234 98 303 98 q 471 98 471 195 q 471 234 442 257 q 413 280 326 302 q 236 326 193 352 q 149 377 127 415 q 104 452 104 506 q 104 593 181 646 q 257 698 384 698 q 500 698 570 656 q 641 614 657 533 l 516 500 q 505 544 469 570 q 434 596 376 596 q 315 596 281 573 q 246 551 246 511 q 246 488 259 472 q 271 456 296 444 q 320 432 393 413 q 470 391 507 372 q 544 354 567 330 q 589 307 601 276 q 612 246 612 207 q 612 101 531 46 q 450 -10 293 -10 z"},"}":{"x_min":0,"x_max":389,"ha":389,"o":"m 195 725 q 253 725 286 696 q 320 666 320 616 q 320 594 314 567 l 285 417 q 281 400 281 383 q 281 346 304 326 q 327 307 375 306 l 356 212 q 299 211 266 184 q 233 156 223 101 l 190 -63 q 175 -138 134 -173 q 92 -208 19 -208 l -76 -208 l -58 -115 l -21 -115 q 20 -115 41 -92 q 62 -69 72 -15 l 102 137 q 111 183 145 216 q 179 248 227 258 l 227 259 q 190 269 169 294 q 147 319 147 355 q 147 369 150 380 l 182 543 q 186 565 186 581 q 186 606 170 619 q 154 632 126 632 l 87 632 l 105 725 z"},"Z":{"x_min":0,"x_max":611,"ha":611,"o":"m 528 0 l -23 0 l -4 102 l 449 575 l 125 575 l 147 688 l 642 688 l 623 588 l 168 113 l 550 113 z"},"x":{"x_min":0,"x_max":556,"ha":556,"o":"m 354 0 l 263 187 l 103 0 l -44 0 l 204 274 l 68 528 l 210 528 l 295 359 l 439 528 l 590 528 l 354 272 l 498 0 z"},")":{"x_min":0,"x_max":333,"ha":333,"o":"m -88 -208 q 168 43 168 395 q 168 478 149 566 q 129 655 96 725 l 225 725 q 304 568 304 387 q 304 204 238 52 q 173 -100 49 -208 z"},"&":{"x_min":0,"x_max":722,"ha":722,"o":"m 24 173 q 24 324 232 396 q 225 419 220 450 q 215 481 215 506 q 215 590 271 641 q 327 692 424 692 q 501 692 545 659 q 588 626 588 566 q 588 522 566 488 q 543 453 502 425 q 460 396 359 355 q 380 297 399 262 q 417 228 443 193 q 508 262 558 371 l 649 331 q 627 280 590 224 q 554 169 513 127 q 550 96 603 96 q 634 96 657 104 l 638 5 q 606 -6 570 -6 q 485 -6 421 51 q 387 24 361 13 q 336 2 302 -4 q 269 -10 227 -10 q 128 -10 76 37 q 24 84 24 173 z m 241 83 q 271 83 302 94 q 332 105 354 122 q 293 202 256 308 q 196 281 172 249 q 148 216 148 176 q 148 134 174 109 q 199 83 241 83 z m 326 508 q 326 469 335 438 q 405 464 429 479 q 454 495 466 514 q 479 533 479 558 q 479 583 462 596 q 446 609 417 609 q 376 609 351 582 q 326 555 326 508 z"},"_":{"x_min":0,"x_max":556,"ha":556,"o":"m -59 -122 l -59 -84 l 516 -84 l 516 -122 z"},"v":{"x_min":0,"x_max":556,"ha":556,"o":"m 304 0 l 140 0 l 54 528 l 195 528 l 229 233 q 231 218 236 166 q 240 113 240 102 q 270 171 300 231 l 454 528 l 602 528 z"},"O":{"x_min":0,"x_max":778,"ha":778,"o":"m 453 698 q 596 698 679 622 q 761 546 761 416 q 761 295 710 196 q 658 96 566 43 q 474 -10 355 -10 q 261 -10 191 25 q 122 61 85 126 q 49 192 49 280 q 49 395 100 494 q 152 593 243 646 q 334 698 453 698 z m 446 584 q 367 584 312 548 q 256 511 226 438 q 195 364 195 284 q 195 194 239 149 q 283 104 362 104 q 440 104 496 140 q 552 177 582 249 q 613 321 613 404 q 613 490 570 537 q 527 584 446 584 z"},"(":{"x_min":0,"x_max":333,"ha":333,"o":"m 427 725 q 171 480 171 137 q 171 -58 243 -208 l 108 -208 q 36 -53 36 145 q 36 322 101 470 q 165 618 290 725 z"},"C":{"x_min":0,"x_max":722,"ha":722,"o":"m 196 280 q 196 195 238 149 q 279 103 357 103 q 487 103 561 229 l 672 172 q 569 -10 347 -10 q 254 -10 186 25 q 119 61 84 126 q 49 191 49 278 q 49 401 100 498 q 151 595 243 646 q 335 698 453 698 q 565 698 637 650 q 709 602 734 507 l 600 472 q 586 524 546 555 q 506 585 448 585 q 330 585 263 503 q 196 421 196 280 z"},"W":{"x_min":0,"x_max":944,"ha":944,"o":"m 704 0 l 533 0 l 520 396 l 518 504 l 517 545 q 488 467 472 428 q 457 390 290 0 l 117 0 l 73 688 l 210 688 l 228 290 q 231 208 231 121 l 259 191 l 296 282 l 469 688 l 624 688 l 644 121 q 657 157 682 221 q 708 285 873 688 l 1015 688 z"},"A":{"x_min":0,"x_max":722,"ha":722,"o":"m 507 0 l 480 176 l 218 176 l 123 0 l -21 0 l 364 688 l 534 688 l 650 0 z m 428 582 q 417 551 380 479 l 276 284 l 469 284 l 437 505 q 428 571 428 582 z"},"f":{"x_min":0,"x_max":333,"ha":333,"o":"m 258 436 l 173 0 l 36 0 l 121 436 l 44 436 l 62 528 l 139 528 l 150 583 q 165 659 211 692 q 257 725 341 725 q 376 725 417 716 l 399 628 q 394 629 378 631 q 362 633 352 633 q 319 633 305 617 q 290 602 284 570 l 276 528 l 380 528 l 362 436 z"},"Q":{"x_min":0,"x_max":778,"ha":778,"o":"m 453 698 q 596 698 679 622 q 761 546 761 416 q 761 364 751 317 q 738 251 710 197 q 682 142 641 101 q 600 60 547 33 q 494 6 431 -4 q 440 -52 462 -73 q 484 -95 528 -95 q 567 -95 601 -88 l 579 -183 q 544 -195 497 -195 q 400 -195 348 -149 q 296 -104 285 -4 q 228 5 183 30 q 139 54 109 91 q 79 128 64 176 q 49 224 49 280 q 49 395 100 494 q 152 593 243 646 q 334 698 453 698 z m 446 584 q 367 584 312 548 q 256 511 226 438 q 195 364 195 284 q 195 194 239 149 q 283 104 362 104 q 440 104 496 140 q 552 177 582 249 q 613 321 613 404 q 613 490 570 537 q 527 584 446 584 z"},"w":{"x_min":0,"x_max":778,"ha":778,"o":"m 589 0 l 444 0 l 423 322 l 421 435 q 395 365 375 321 l 227 0 l 82 0 l 48 528 l 174 528 l 181 188 l 181 125 l 194 158 l 220 218 l 363 528 l 510 528 l 531 218 l 533 125 l 559 189 l 701 528 l 831 528 z"},"-":{"x_min":0,"x_max":333,"ha":333,"o":"m 27 200 l 50 319 l 304 319 l 281 200 z"},"E":{"x_min":0,"x_max":667,"ha":667,"o":"m 18 0 l 151 688 l 692 688 l 670 577 l 273 577 l 240 404 l 607 404 l 585 292 l 218 292 l 183 111 l 600 111 l 578 0 z"},"s":{"x_min":0,"x_max":556,"ha":556,"o":"m 488 163 q 488 78 426 34 q 363 -10 243 -10 q 145 -10 88 25 q 31 60 11 132 l 134 150 q 144 113 171 97 q 199 81 252 81 q 306 81 333 98 q 361 115 361 147 q 361 173 341 186 q 320 200 251 214 q 154 236 115 275 q 75 314 75 375 q 75 454 136 495 q 197 537 311 537 q 412 537 461 502 q 510 468 522 396 l 399 382 q 391 416 367 431 q 343 446 302 446 q 202 446 202 387 q 202 371 211 360 q 221 350 239 342 q 257 334 326 318 q 415 298 452 261 q 488 224 488 163 z"},">":{"x_min":0,"x_max":584,"ha":584,"o":"m 61 61 l 61 172 l 467 330 l 61 489 l 61 600 l 562 409 l 562 252 z"},"l":{"x_min":0,"x_max":278,"ha":278,"o":"m 17 0 l 158 725 l 295 725 l 154 0 z"},"8":{"x_min":0,"x_max":556,"ha":556,"o":"m 345 698 q 442 698 499 653 q 555 608 555 533 q 555 464 513 418 q 471 373 400 363 l 400 361 q 454 345 483 305 q 512 266 512 211 q 512 109 440 50 q 367 -10 241 -10 q 132 -10 73 39 q 13 88 13 176 q 13 248 59 295 q 105 343 188 360 l 188 362 q 144 382 120 421 q 97 460 97 514 q 97 600 164 649 q 231 698 345 698 z m 316 410 q 362 410 389 439 q 416 468 416 520 q 416 602 332 602 q 285 602 259 574 q 232 547 232 498 q 232 456 254 433 q 276 410 316 410 z m 274 312 q 217 312 186 278 q 155 243 155 184 q 155 138 181 112 q 207 87 254 87 q 307 87 339 122 q 371 157 371 217 q 371 263 345 288 q 319 312 274 312 z"},"\\":{"x_min":0,"x_max":278,"ha":278,"o":"m 141 -20 l 54 725 l 170 725 l 260 -20 z"},"e":{"x_min":0,"x_max":556,"ha":556,"o":"m 175 232 q 171 214 171 189 q 171 137 194 110 q 217 82 261 82 q 333 82 365 165 l 485 128 q 448 51 394 21 q 340 -10 252 -10 q 148 -10 89 47 q 31 103 31 204 q 31 305 66 381 q 101 457 166 498 q 230 538 315 538 q 417 538 473 486 q 528 433 528 337 q 528 289 517 232 z m 401 324 l 403 351 q 403 403 379 427 q 354 451 315 451 q 269 451 237 419 q 205 386 191 324 z"},"b":{"x_min":0,"x_max":611,"ha":611,"o":"m 417 538 q 495 538 539 492 q 582 446 582 365 l 582 358 q 582 267 552 173 q 521 80 467 35 q 412 -10 327 -10 q 266 -10 228 16 q 189 41 174 87 l 173 87 l 159 33 l 149 0 l 17 0 q 20 7 27 40 q 34 73 41 109 l 161 725 l 298 725 l 257 516 q 244 446 242 446 l 244 446 q 271 487 315 512 q 358 538 417 538 z m 359 443 q 297 443 260 400 q 224 357 207 271 q 199 225 199 196 q 199 144 225 114 q 250 84 297 84 q 346 84 374 115 q 402 146 420 219 q 439 292 439 339 q 439 390 422 417 q 404 443 359 443 z"},"%":{"x_min":0,"x_max":889,"ha":889,"o":"m 267 694 q 340 694 379 655 q 417 616 417 543 q 417 503 405 457 q 391 390 361 346 q 331 302 290 279 q 250 256 199 256 q 129 256 92 297 q 55 338 55 411 q 55 454 66 496 q 107 694 267 694 z m 266 620 q 228 620 206 591 q 184 562 171 501 q 159 440 159 404 q 159 334 201 334 q 239 334 263 366 q 287 397 299 461 q 313 515 313 552 q 313 620 266 620 z m 710 431 q 784 431 823 392 q 861 353 861 280 q 861 240 849 193 q 834 126 805 83 q 775 39 734 16 q 693 -7 643 -7 q 573 -7 536 34 q 499 75 499 147 q 499 191 510 232 q 551 431 710 431 z m 710 357 q 672 357 650 328 q 628 298 615 238 q 603 177 603 141 q 603 71 645 71 q 683 71 707 103 q 730 134 743 198 q 757 251 757 289 q 757 357 710 357 z m 237 0 l 141 0 l 671 688 l 769 688 z"},"m":{"x_min":0,"x_max":889,"ha":889,"o":"m 646 436 q 601 436 568 398 q 536 360 523 296 l 465 0 l 329 0 l 389 310 q 397 354 397 376 q 397 436 335 436 q 292 436 259 399 q 226 362 212 295 l 155 0 l 17 0 l 98 416 q 108 462 117 528 l 250 528 q 250 523 245 490 q 240 458 236 438 l 238 438 q 275 495 312 516 q 348 538 398 538 q 458 538 494 509 q 529 479 536 424 q 575 485 615 511 q 655 538 708 538 q 776 538 812 502 q 848 466 848 399 q 848 368 837 319 l 775 0 l 639 0 l 698 306 q 707 350 707 374 l 707 376 q 706 436 646 436 z"},"#":{"x_min":0,"x_max":556,"ha":556,"o":"m 458 421 l 425 259 l 530 259 l 530 186 l 410 186 l 370 0 l 293 0 l 333 186 l 183 186 l 144 0 l 69 0 l 107 186 l 32 186 l 32 259 l 124 259 l 158 421 l 57 421 l 57 493 l 173 493 l 214 681 l 289 681 l 249 493 l 398 493 l 439 681 l 516 681 l 475 493 l 555 493 l 555 421 z m 234 421 l 199 259 l 350 259 l 384 421 z"},",":{"x_min":0,"x_max":278,"ha":278,"o":"m 81 -155 l -10 -155 q 28 -117 53 -76 q 79 -36 85 0 l 22 0 l 51 149 l 192 149 l 169 32 q 158 -26 137 -71 q 116 -116 81 -155 z"},"n":{"x_min":0,"x_max":611,"ha":611,"o":"m 360 0 l 418 291 q 431 351 431 371 q 431 434 356 434 q 307 434 265 394 q 223 354 212 296 l 155 0 l 17 0 l 98 416 q 106 454 117 528 l 248 528 q 248 524 243 487 q 238 451 236 438 l 237 438 q 274 489 318 513 q 362 538 419 538 q 494 538 531 502 q 569 466 569 399 q 569 387 565 360 q 562 333 559 319 l 497 0 z"},"h":{"x_min":0,"x_max":611,"ha":611,"o":"m 293 725 l 255 527 l 236 438 l 237 438 q 274 489 318 513 q 362 538 419 538 q 494 538 531 502 q 569 466 569 399 q 569 387 565 360 q 562 333 559 319 l 497 0 l 360 0 l 418 291 q 431 351 431 371 q 431 434 356 434 q 307 434 265 394 q 223 354 212 296 l 155 0 l 17 0 l 157 725 z"},"z":{"x_min":0,"x_max":500,"ha":500,"o":"m -5 0 l 14 97 l 313 429 l 98 429 l 118 528 l 493 528 l 474 430 l 176 100 l 434 100 l 414 0 z"},"B":{"x_min":0,"x_max":722,"ha":722,"o":"m 151 688 l 437 688 q 559 688 622 648 q 685 607 685 529 q 685 462 645 419 q 604 376 527 360 q 593 349 631 309 q 668 269 668 210 q 668 107 592 54 q 515 0 362 0 l 18 0 z m 241 411 l 385 411 q 470 411 506 433 q 542 456 542 507 q 542 546 514 563 q 486 581 421 581 l 274 581 z m 182 107 l 342 107 q 444 107 484 132 q 523 156 523 213 q 523 257 490 281 q 457 304 382 304 l 221 304 z"},"K":{"x_min":0,"x_max":722,"ha":722,"o":"m 486 0 l 312 312 l 209 252 l 160 0 l 18 0 l 151 688 l 295 688 l 231 376 l 603 688 l 783 688 l 418 387 l 645 0 z"},"R":{"x_min":0,"x_max":722,"ha":722,"o":"m 493 0 l 381 261 l 212 261 l 162 0 l 18 0 l 151 688 l 469 688 q 547 688 602 664 q 658 640 687 596 q 715 551 715 491 q 715 411 662 354 q 609 298 519 285 l 652 0 z m 426 373 q 497 373 533 402 q 569 430 569 483 q 569 528 538 552 q 507 576 451 576 l 273 576 l 234 373 z"},"T":{"x_min":0,"x_max":611,"ha":611,"o":"m 437 577 l 325 0 l 181 0 l 293 577 l 71 577 l 92 688 l 681 688 l 660 577 z"},"P":{"x_min":0,"x_max":667,"ha":667,"o":"m 415 688 q 535 688 602 633 q 668 579 668 482 q 668 372 594 307 q 519 242 393 242 l 209 242 l 161 0 l 18 0 l 151 688 z m 230 353 l 371 353 q 447 353 485 381 q 522 410 522 474 q 522 524 491 550 q 460 576 401 576 l 273 576 z"},"|":{"x_min":0,"x_max":280,"ha":280,"o":"m 93 -208 l 93 725 l 221 725 l 221 -208 z"},"t":{"x_min":0,"x_max":333,"ha":333,"o":"m 184 -8 q 123 -8 90 21 q 57 49 57 102 q 57 137 64 179 l 114 436 l 42 436 l 60 528 l 139 528 l 206 652 l 292 652 l 269 528 l 367 528 l 350 436 l 250 436 l 199 174 q 194 147 194 131 q 194 108 205 97 q 217 86 236 86 q 252 86 289 93 l 273 4 q 234 -8 184 -8 z"},"M":{"x_min":0,"x_max":833,"ha":833,"o":"m 589 0 l 673 432 q 686 495 709 589 l 675 515 q 637 430 620 398 l 418 0 l 316 0 l 270 400 q 255 542 250 589 q 237 470 229 433 l 146 0 l 18 0 l 151 688 l 344 688 l 387 303 l 399 168 q 417 208 432 239 q 447 271 659 688 l 851 688 l 717 0 z"},"g":{"x_min":0,"x_max":611,"ha":611,"o":"m 210 -208 q 113 -208 61 -174 q 9 -140 -3 -69 l 135 -55 q 148 -117 227 -117 q 280 -117 310 -88 q 340 -59 356 13 q 366 60 372 98 l 371 98 q 340 55 317 36 q 293 17 264 6 q 235 -4 198 -4 q 122 -4 77 45 q 32 94 32 174 q 32 272 63 362 q 94 452 148 495 q 203 538 286 538 q 344 538 385 510 q 427 483 440 436 l 441 436 q 444 450 453 487 q 462 524 464 528 l 594 528 l 584 488 l 570 417 l 489 5 q 466 -109 400 -158 q 334 -208 210 -208 z m 413 335 q 413 386 388 415 q 362 444 316 444 q 279 444 255 428 q 231 413 214 378 q 197 343 186 286 q 175 229 175 193 q 175 96 260 96 q 303 96 339 129 q 375 162 394 218 q 413 274 413 335 z"},"j":{"x_min":0,"x_max":278,"ha":278,"o":"m 138 624 l 158 725 l 295 725 l 275 624 z m -26 -208 q -73 -208 -107 -198 l -90 -106 l -62 -108 q -29 -108 -13 -92 q 2 -75 11 -29 l 120 528 l 257 528 l 142 -62 q 127 -133 85 -170 q 42 -208 -26 -208 z"},"i":{"x_min":0,"x_max":278,"ha":278,"o":"m 138 624 l 158 725 l 295 725 l 275 624 z m 17 0 l 120 528 l 257 528 l 154 0 z"},"y":{"x_min":0,"x_max":556,"ha":556,"o":"m 43 -208 q -4 -208 -42 -199 l -23 -103 q -3 -107 20 -107 q 58 -107 87 -85 q 116 -62 145 -12 l 158 12 l 55 528 l 197 528 l 231 286 q 236 264 242 199 q 249 135 249 125 q 249 123 249 123 l 257 141 l 325 284 l 451 528 l 598 528 l 278 -28 q 226 -109 193 -143 q 160 -176 124 -192 q 88 -208 43 -208 z"},"@":{"x_min":0,"x_max":975,"ha":975,"o":"m 933 369 q 933 280 902 207 q 871 133 816 92 q 762 51 698 51 q 653 51 629 73 q 605 95 605 135 q 605 153 608 167 l 605 167 q 581 116 532 83 q 484 51 434 51 q 357 51 315 100 q 273 150 273 239 q 273 318 304 388 q 336 458 392 498 q 448 538 517 538 q 612 538 646 453 l 649 453 l 668 527 l 744 527 l 687 280 q 669 196 669 163 q 669 138 680 128 q 692 118 707 118 q 746 118 782 152 q 817 186 838 242 q 859 299 859 368 q 859 453 822 519 q 784 584 714 620 q 644 656 550 656 q 433 656 344 604 q 254 553 203 457 q 152 360 152 240 q 152 145 191 73 q 230 0 300 -36 q 371 -73 465 -73 q 609 -73 753 2 l 783 -57 q 701 -104 623 -124 q 544 -144 462 -144 q 347 -144 259 -97 q 171 -50 122 38 q 73 126 73 240 q 73 378 135 490 q 197 602 306 663 q 415 725 549 725 q 668 725 755 680 q 842 636 887 556 q 933 475 933 369 z m 617 367 q 617 413 588 442 q 559 472 513 472 q 467 472 431 441 q 395 411 374 355 q 354 299 354 240 q 354 184 378 152 q 401 120 450 120 q 482 120 513 140 q 543 161 567 199 q 591 238 604 288 q 617 337 617 367 z"},".":{"x_min":0,"x_max":278,"ha":278,"o":"m 22 0 l 51 149 l 192 149 l 164 0 z"},"p":{"x_min":0,"x_max":611,"ha":611,"o":"m 355 443 q 294 443 257 400 q 220 357 204 271 q 195 225 195 196 q 195 144 221 114 q 247 84 293 84 q 343 84 372 116 q 401 147 417 216 q 434 286 434 339 q 434 391 415 417 q 396 443 355 443 z m 241 446 q 276 495 316 516 q 356 538 414 538 q 492 538 535 492 q 579 446 579 365 q 579 267 548 173 q 518 80 463 35 q 408 -10 323 -10 q 262 -10 224 16 q 186 41 170 87 l 169 87 q 166 57 154 -5 l 115 -208 l -22 -208 l 97 407 l 106 460 l 116 528 l 250 528 q 250 521 246 490 q 243 459 239 446 z"},"X":{"x_min":0,"x_max":667,"ha":667,"o":"m 107 688 l 258 688 l 368 458 l 564 688 l 717 688 l 424 357 l 603 0 l 453 0 l 330 260 l 107 0 l -46 0 l 272 359 z"},"*":{"x_min":0,"x_max":389,"ha":389,"o":"m 280 554 l 395 605 l 428 509 l 306 479 l 397 375 l 307 316 l 236 439 l 163 316 l 72 376 l 165 479 l 43 509 l 76 605 l 193 554 l 184 688 l 289 688 z"},"Y":{"x_min":0,"x_max":667,"ha":667,"o":"m 354 0 l 210 0 l 265 282 l 84 688 l 227 688 l 353 393 l 584 688 l 742 688 l 408 282 z"},"c":{"x_min":0,"x_max":556,"ha":556,"o":"m 262 84 q 302 84 329 110 q 355 136 371 186 l 503 162 q 451 -10 254 -10 q 146 -10 89 45 q 31 100 31 198 q 31 293 69 376 q 108 460 172 499 q 236 538 332 538 q 424 538 479 491 q 535 445 542 362 l 403 351 q 397 444 321 444 q 269 444 240 408 q 210 372 186 281 q 175 225 175 199 q 175 84 262 84 z"},"!":{"x_min":0,"x_max":333,"ha":333,"o":"m 207 208 l 94 208 l 172 688 l 316 688 z m 39 0 l 64 132 l 205 132 l 179 0 z"},"/":{"x_min":0,"x_max":278,"ha":278,"o":"m -37 -20 l 250 725 l 366 725 l 81 -20 z"},"[":{"x_min":0,"x_max":333,"ha":333,"o":"m -26 -208 l 154 725 l 419 725 l 401 632 l 266 632 l 121 -114 l 256 -114 l 238 -208 z"},"6":{"x_min":0,"x_max":556,"ha":556,"o":"m 260 -10 q 158 -10 102 55 q 46 120 46 238 q 46 369 87 475 q 128 582 201 640 q 274 698 364 698 q 452 698 502 657 q 553 617 562 540 l 432 520 q 425 556 407 573 q 389 590 356 590 q 300 590 259 534 q 217 478 198 364 q 224 399 264 421 q 304 443 354 443 q 434 443 480 394 q 526 345 526 260 q 526 187 492 124 q 458 62 397 26 q 336 -10 260 -10 z m 180 209 q 180 158 204 128 q 228 98 272 98 q 325 98 356 137 q 387 177 387 244 q 387 291 364 316 q 340 342 300 342 q 267 342 239 325 q 211 309 196 278 q 180 248 180 209 z"},"r":{"x_min":0,"x_max":389,"ha":389,"o":"m 412 417 q 378 424 356 424 q 296 424 259 381 q 221 339 204 251 l 154 0 l 17 0 l 96 405 q 107 464 116 528 l 247 528 l 236 444 l 232 420 l 234 420 q 270 486 305 512 q 339 538 384 538 q 407 538 435 531 z"},"2":{"x_min":0,"x_max":556,"ha":556,"o":"m -16 0 l 2 95 q 26 137 58 171 q 89 206 126 238 q 163 269 251 331 q 323 381 350 408 q 376 434 390 461 q 405 489 405 519 q 405 589 326 589 q 283 589 256 567 q 230 546 217 499 l 87 528 q 113 615 175 657 q 238 698 335 698 q 438 698 492 656 q 546 613 546 529 q 546 482 525 439 q 505 397 464 357 q 422 317 330 255 q 266 211 227 178 q 189 145 167 113 l 487 113 l 465 0 z"},"{":{"x_min":0,"x_max":389,"ha":389,"o":"m 189 -208 q 131 -208 98 -178 q 64 -148 64 -99 q 64 -77 70 -49 l 100 101 q 103 118 103 134 q 103 209 9 211 l 28 305 q 141 307 162 416 l 194 581 q 208 652 249 688 q 290 725 365 725 l 460 725 l 442 632 l 405 632 q 365 632 344 609 q 323 586 312 532 l 283 380 q 273 334 239 302 q 205 270 158 260 l 157 258 q 193 249 215 224 q 237 199 237 163 q 237 148 234 137 l 203 -26 q 198 -46 198 -63 q 198 -89 214 -102 q 230 -114 258 -114 l 297 -114 l 279 -208 z"},"9":{"x_min":0,"x_max":556,"ha":556,"o":"m 399 319 q 367 281 331 263 q 295 246 244 246 q 166 246 119 298 q 72 350 72 436 q 72 509 106 570 q 141 630 202 664 q 264 698 338 698 q 436 698 494 635 q 552 573 552 467 q 552 383 528 289 q 504 195 462 127 q 419 59 362 25 q 304 -10 234 -10 q 145 -10 91 32 q 37 74 23 152 l 157 175 q 171 99 243 99 q 357 99 399 319 z m 417 493 q 417 535 393 563 q 369 591 331 591 q 275 591 243 550 q 211 509 211 439 q 211 398 234 372 q 258 347 298 347 q 354 347 386 386 q 417 425 417 493 z"}," ":{"x_min":0,"x_max":278,"ha":278,"o":""},"I":{"x_min":0,"x_max":278,"ha":278,"o":"m 18 0 l 151 688 l 295 688 l 161 0 z"},"H":{"x_min":0,"x_max":722,"ha":722,"o":"m 467 0 l 524 295 l 219 295 l 161 0 l 18 0 l 151 688 l 295 688 l 242 414 l 547 414 l 601 688 l 739 688 l 605 0 z"},"4":{"x_min":0,"x_max":556,"ha":556,"o":"m 427 140 l 400 0 l 270 0 l 296 140 l -17 140 l 3 241 l 354 688 l 534 688 l 447 242 l 539 242 l 519 140 z m 391 589 q 368 551 333 506 l 126 242 l 316 242 l 366 498 q 375 542 391 589 z"},"~":{"x_min":0,"x_max":584,"ha":584,"o":"m 434 252 q 397 252 362 262 q 327 272 290 285 q 224 308 182 308 q 147 308 118 298 q 89 287 58 265 l 58 369 q 113 410 190 410 q 229 410 266 399 q 304 389 340 376 q 405 353 443 353 q 509 353 564 398 l 564 291 q 533 270 505 261 q 476 252 434 252 z"},"D":{"x_min":0,"x_max":722,"ha":722,"o":"m 358 688 q 521 688 607 612 q 694 537 694 394 q 694 279 646 190 q 597 102 505 51 q 414 0 300 0 l 18 0 l 151 688 z m 183 111 l 295 111 q 374 111 434 145 q 494 178 527 241 q 559 304 559 388 q 559 480 508 528 q 456 577 359 577 l 273 577 z"},"^":{"x_min":0,"x_max":584,"ha":584,"o":"m 470 251 l 311 618 l 152 251 l 42 251 l 232 688 l 390 688 l 582 251 z"},"0":{"x_min":0,"x_max":556,"ha":556,"o":"m 354 698 q 546 698 546 471 q 546 415 528 325 q 458 -10 233 -10 q 136 -10 89 48 q 42 105 42 222 q 42 290 63 390 q 85 490 124 559 q 162 627 219 663 q 275 698 354 698 z m 243 98 q 300 98 334 151 q 369 203 391 320 q 413 437 413 477 q 413 591 339 591 q 297 591 271 568 q 245 545 226 494 q 208 443 191 343 q 175 243 175 203 q 175 98 243 98 z"},"F":{"x_min":0,"x_max":611,"ha":611,"o":"m 273 577 l 232 364 l 558 364 l 537 252 l 210 252 l 161 0 l 18 0 l 151 688 l 632 688 l 611 577 z"},"`":{"x_min":0,"x_max":333,"ha":333,"o":"m 291 578 l 141 712 l 145 733 l 271 733 l 366 593 l 363 578 z"},"k":{"x_min":0,"x_max":556,"ha":556,"o":"m 355 0 l 264 243 l 195 206 l 154 0 l 17 0 l 158 725 l 295 725 l 213 310 l 440 528 l 598 528 l 367 322 l 501 0 z"},"u":{"x_min":0,"x_max":611,"ha":611,"o":"m 250 528 l 192 238 q 180 178 180 157 q 180 94 254 94 q 303 94 345 134 q 387 173 398 232 l 456 528 l 593 528 l 512 113 q 504 74 494 0 l 363 0 q 363 4 367 41 q 372 78 375 90 l 373 90 q 336 38 292 14 q 248 -9 191 -9 q 117 -9 79 26 q 42 62 42 129 q 42 142 45 169 q 48 196 52 209 l 114 528 z"},"]":{"x_min":0,"x_max":333,"ha":333,"o":"m -85 -208 l -67 -114 l 68 -114 l 213 632 l 78 632 l 96 725 l 360 725 l 179 -208 z"},"U":{"x_min":0,"x_max":722,"ha":722,"o":"m 336 103 q 417 103 458 140 q 500 177 517 264 l 599 688 l 743 688 l 659 259 q 632 122 552 56 q 471 -10 328 -10 q 199 -10 129 48 q 58 105 58 210 q 58 232 62 262 q 65 292 69 310 l 142 688 l 286 688 l 211 292 q 202 250 202 208 q 202 158 238 131 q 273 103 336 103 z"},"o":{"x_min":0,"x_max":611,"ha":611,"o":"m 579 333 q 579 232 539 154 q 499 75 426 33 q 353 -10 261 -10 q 155 -10 93 48 q 31 105 31 205 q 31 303 70 378 q 108 454 180 496 q 252 538 344 538 q 458 538 519 484 q 579 431 579 333 z m 435 323 q 435 444 333 444 q 278 444 245 415 q 212 385 193 325 q 175 266 175 210 q 175 84 276 84 q 331 84 363 112 q 395 139 413 195 q 432 251 435 323 z"},"N":{"x_min":0,"x_max":722,"ha":722,"o":"m 432 0 l 249 552 q 238 473 230 436 l 146 0 l 18 0 l 151 688 l 322 688 l 506 131 l 512 171 q 518 211 526 256 l 611 688 l 739 688 l 605 0 z"},"+":{"x_min":0,"x_max":584,"ha":584,"o":"m 366 278 l 366 79 l 256 79 l 256 278 l 61 278 l 61 387 l 256 387 l 256 586 l 366 586 l 366 387 l 562 387 l 562 278 z"},"G":{"x_min":0,"x_max":778,"ha":778,"o":"m 361 -9 q 215 -9 132 68 q 49 146 49 285 q 49 407 100 501 q 151 596 244 647 q 338 698 460 698 q 571 698 646 648 q 721 598 747 507 l 609 469 q 595 524 555 555 q 514 585 452 585 q 375 585 316 548 q 257 512 226 444 q 195 377 195 289 q 195 202 241 153 q 288 103 373 103 q 426 103 476 116 q 525 128 561 150 l 583 261 l 416 261 l 435 363 l 735 363 l 684 85 q 607 33 531 12 q 455 -9 361 -9 z"},"q":{"x_min":0,"x_max":611,"ha":611,"o":"m 438 441 q 451 501 461 528 l 593 528 q 589 515 579 463 q 568 412 448 -208 l 311 -208 l 353 3 l 370 80 l 368 80 q 332 32 290 11 q 249 -10 192 -10 q 118 -10 73 38 q 29 85 29 170 q 29 266 60 355 q 91 444 148 491 q 205 538 283 538 q 347 538 381 516 q 416 494 436 441 z m 253 84 q 315 84 352 127 q 388 170 404 257 q 412 300 412 332 q 412 444 327 444 q 273 444 241 413 q 208 381 191 315 q 174 249 174 188 q 174 138 194 111 q 213 84 253 84 z"},"d":{"x_min":0,"x_max":611,"ha":611,"o":"m 366 78 q 331 33 291 11 q 250 -10 191 -10 q 116 -10 72 40 q 28 89 28 173 q 28 266 60 355 q 91 445 147 491 q 204 538 283 538 q 408 538 437 441 l 439 441 q 440 451 443 471 q 446 490 452 521 l 493 725 l 628 725 l 512 113 q 502 58 498 0 l 360 0 q 360 31 368 78 z m 251 84 q 291 84 319 101 q 348 118 368 153 q 388 188 399 240 q 411 293 411 333 q 411 391 388 418 q 365 444 319 444 q 270 444 238 411 q 207 377 190 312 q 173 247 173 192 q 173 84 251 84 z"},"1":{"x_min":0,"x_max":556,"ha":556,"o":"m 16 0 l 37 113 l 208 113 l 295 562 l 109 458 l 132 576 l 325 688 l 457 688 l 345 113 l 502 113 l 481 0 z"},"5":{"x_min":0,"x_max":556,"ha":556,"o":"m 154 688 l 568 688 l 547 575 l 257 575 l 214 412 q 223 420 235 428 q 247 436 262 442 q 277 448 296 452 q 315 456 339 456 q 420 456 470 401 q 520 346 520 253 q 520 174 485 115 q 451 55 386 22 q 322 -10 237 -10 q 140 -10 82 33 q 23 77 10 161 l 148 183 q 157 137 180 119 q 203 101 249 101 q 310 101 345 138 q 380 175 380 237 q 380 289 356 317 q 332 345 288 345 q 228 345 189 301 l 55 301 z"}}}
